<svg width="390" height="247" viewBox="0 0 390 247" fill="none" xmlns="http://www.w3.org/2000/svg">
<path d="M2 169C3.8998 162.826 10.9295 156.908 15.3889 152.611C29.6371 138.881 43.5328 124.756 57.7778 111C73.801 95.5269 88.7247 79.1291 101.778 61.0556C111.32 47.8433 123.499 33.2568 129.111 17.6667C129.415 16.8219 131.87 2.27109 131.222 2.38889C124.683 3.57789 124.813 17.7163 124.111 21.8889C116.534 66.9335 110.261 112.136 104.444 157.444C101.831 177.803 99.2297 197.929 95.6667 218.167C94.0455 227.375 92.4272 234.857 88.2222 243.111C84.4946 250.428 79.3745 237.02 78.2222 233.444C75.1802 224.004 72.8847 214.727 74.9444 204.722C78.4253 187.815 88.4097 174.856 99.6667 162.444C112.281 148.536 124.365 132.708 139 121" stroke="white" stroke-width="3" stroke-linecap="round"/>
<path d="M146 143C144.251 141.445 140.456 141.613 138.444 142.667C132.616 145.72 134 155.442 134 160.778C134 163.658 132.812 167.95 137.056 166.889C142.356 165.564 143.894 156.77 144 152.222C144.059 149.694 145 140.856 145 148.5C145 150.323 143.771 160.892 145.444 161.778C150.707 164.564 159.51 157.538 162.944 154.5C165.703 152.06 167 140.539 167 144.222C167 148.27 166.29 153.073 167.5 156.944C167.843 158.042 171.989 165.577 172 165.556C173.007 163.541 172 158.341 172 156C172 154.14 175.937 149.586 176 151.222C176.061 152.796 174.9 160.438 176.611 161.389C181.384 164.041 181.841 153.554 182.778 151.889C183.036 151.43 185.02 155.45 185.222 155.778C186.312 157.538 187.531 159 189.667 159C195.758 159 201.412 148.144 201.944 142.556C202.309 138.727 202 143.765 202 144.889C202 147.555 201.952 148.324 203.778 150.222C208.73 155.373 206.34 149.28 209.444 150.167C210.679 150.519 209.868 155.876 210 157C210.212 158.798 217.696 162.796 219.556 162.944C231.432 163.895 234.698 145.602 236.333 136.444C238.357 125.114 238.384 110.682 236.944 99.1667C236.609 96.4852 233.931 99.8013 233.556 100.722C230.778 107.539 231.06 116.433 231 123.667C230.979 126.253 229.996 148.82 229.944 148.778C227.378 146.639 225.904 143.015 223.5 140.611C221.561 138.672 217.347 136.784 217 133.778C216.956 133.393 216.042 131.372 216.222 131.222C219.329 128.633 226.081 126.975 229.944 126.056C235.899 124.638 241 123.951 241 117C241 116.024 241.16 107.388 239.556 109.222C237.556 111.508 238.396 120.719 238 123.611C237.122 130.02 237 136.328 237 142.778C237 148.795 238.331 136.171 240 133.667C243.895 127.825 247.311 147.329 249.444 147.778C252.036 148.323 257.499 131.761 258.389 130C264.794 117.329 271.757 105.449 280 94" stroke="white" stroke-width="3" stroke-linecap="round"/>
<path d="M287 78C285.749 80.9719 286.103 85.3576 286.056 88.3333C285.896 98.2941 286.2 108.264 285.889 118.222C285.399 133.914 284 149.451 284 165.167C284 166.725 284.766 174.795 282.556 175.778C280.401 176.736 273.861 162.26 273.333 161.333C259.416 136.867 240.586 99.6968 258.056 72.4444C262.349 65.7463 264.872 65.8133 271.222 63.5556C276.158 61.8007 277.607 63.1229 280.333 68.3333C285.255 77.7393 287.051 90.9709 288.833 101.333C290.691 112.13 291.559 126.438 286.5 136.556C284.439 140.677 276.392 142.118 275.222 137C274.549 134.054 276.281 131.5 279.444 131.167C284.992 130.583 288.54 139.67 290.444 143.389C291.399 145.252 294.205 153.778 296.944 153.778C298.096 153.778 299.518 142.069 299.944 140.611C302.484 131.935 305.201 133.363 308.556 140.778C310.642 145.389 312.496 140.219 315.5 142.556C318.004 144.503 321.186 144.407 324 143.222C328.86 141.176 329.229 145.435 332.5 146.889C342.211 151.205 342 91.4576 342 91.6667C342 120.616 343 149.586 343 178.556C343 182.715 342.768 186.966 343.222 191.111C343.343 192.216 344.338 194.435 343.778 195.556C343.557 195.996 337.732 189.732 337 189" stroke="white" stroke-width="3" stroke-linecap="round"/>
<path d="M302 168C316.835 168 331.425 167.717 346.222 166.444C355.007 165.689 363.309 163.242 372 162" stroke="white" stroke-width="3" stroke-linecap="round"/>
<path d="M385 162C389.495 162 389.186 163 385 163" stroke="white" stroke-width="3" stroke-linecap="round"/>
</svg>
