<svg width="376" height="438" viewBox="0 0 376 438" fill="none" xmlns="http://www.w3.org/2000/svg">
<path d="M118.312 60.9375C125.163 64.4554 129.333 68.7232 132.812 75.5625C139.651 97.0677 128.932 117.023 119.626 135.863C116.877 141.166 113.878 146.345 110.427 151.225C105.892 157.936 105.13 163.214 105.195 171.203C105.181 172.423 105.168 173.642 105.153 174.899C105.121 178.299 105.117 181.697 105.124 185.096C105.126 188.757 105.095 192.418 105.069 196.079C105.027 202.782 105.012 209.485 105.01 216.188C105.008 224.788 104.983 233.388 104.947 241.988C104.889 255.796 104.849 269.603 104.821 283.411C104.812 287.196 104.802 290.981 104.79 294.766C104.774 300.773 104.768 306.779 104.77 312.785C104.77 315.03 104.766 317.274 104.758 319.518C104.748 322.602 104.751 325.686 104.757 328.77C104.751 329.683 104.746 330.597 104.74 331.537C104.529 336.253 104.529 336.253 107 340C108.033 339.357 109.065 338.714 110.129 338.051C118.753 332.713 127.457 327.571 136.312 322.625C144.09 318.267 151.782 313.797 159.375 309.125C160.63 308.359 160.63 308.359 161.911 307.577C191.941 288.92 204.205 261.205 215 229C215.337 227.998 215.674 226.996 216.021 225.964C216.686 223.978 217.344 221.989 218 220C217.315 219.909 216.629 219.817 215.923 219.723C208.207 218.615 203.23 215.883 198.242 209.887C189.263 197.329 190.45 179.432 192.687 164.75C194.9 152.878 199.151 141.615 209 134C214.549 130.754 219.715 130.15 226 131C231.962 132.609 235.919 136.234 239.419 141.231C244.525 150.175 244.496 161.281 244.687 171.312C244.722 172.542 244.756 173.771 244.791 175.037C244.872 178.025 244.942 181.012 245 184C255.232 179.382 260.996 163.943 265 154C265.574 152.114 266.12 150.219 266.625 148.312C267.488 145.226 268.046 143.943 270.125 141.375C274.027 139.509 277.745 139.115 282 140C283.711 141.09 283.711 141.09 285 143C286.04 148.133 285.858 152.378 285.086 157.535C283.664 168.156 283.604 178.737 283.625 189.438C283.625 190.957 283.625 190.957 283.626 192.507C283.656 207.316 284.346 221.513 287.393 236.049C288.057 239.278 288.634 242.515 289.203 245.762C289.612 248.008 290.023 250.254 290.438 252.5C290.709 254.015 290.709 254.015 290.985 255.56C293.131 266.728 293.131 266.728 299.916 275.291C303.9 276.646 307.286 275.585 311 274C315.616 270.969 319.801 267.582 324 264C324.672 263.443 325.343 262.886 326.035 262.312C345.812 244.359 354.877 216.639 357 191C357.226 186.035 357.388 181.065 357.358 176.094C357.428 171.599 357.54 169.612 360.316 165.918C363.833 163.405 365.766 163.307 370 164C372.375 165.312 372.375 165.312 374 168C378.812 197.79 373.804 227.59 356.188 252.312C354.502 254.577 352.759 256.791 351 259C350.485 259.659 349.97 260.317 349.439 260.996C341.209 271.506 333.162 281.51 321.938 288.938C321.372 289.316 320.806 289.694 320.223 290.084C313.381 294.396 305.933 296.022 297.914 294.641C290.021 292.591 283.717 287.314 279.398 280.457C278.061 277.68 276.994 274.917 276 272C275.501 270.583 275.501 270.583 274.992 269.137C268.721 249.31 266.033 228.205 265.438 207.5C265.394 206.091 265.351 204.682 265.307 203.273C265.201 199.849 265.099 196.425 265 193C263.888 193.927 262.779 194.859 261.672 195.793C261.054 196.311 260.436 196.83 259.8 197.364C258.093 198.916 256.676 200.504 255.25 202.312C251.915 206.424 247.772 209.329 243.488 212.398C240.116 215.925 239.309 219.385 238 224C237.461 225.597 236.908 227.189 236.344 228.777C236.049 229.608 235.755 230.438 235.451 231.293C227.249 254.094 219.045 276.472 203 295C202.567 295.505 202.134 296.011 201.688 296.531C186.673 313.924 167.582 325.371 147.748 336.583C124.061 348.678 124.061 348.678 106 367C104.821 371.688 104.889 376.393 104.812 381.198C104.58 392.861 103.354 403.153 99 414C98.7444 414.642 98.4889 415.284 98.2256 415.945C94.5909 424.742 89.7988 432.601 81 437C75.2245 437.566 71.4505 436.6 67 433C60.8108 425.182 61.5076 417.158 62.168 407.559C64.3871 392.547 73.7408 378.437 81.7766 365.934C82.1803 365.296 82.584 364.658 83 364C83.5116 363.347 84.0233 362.695 84.5504 362.023C86.6687 357.606 86.4314 353.546 86.4165 348.705C86.4251 347.671 86.4337 346.636 86.4425 345.57C86.4676 342.152 86.472 338.734 86.4766 335.316C86.4909 332.939 86.5066 330.561 86.5238 328.184C86.5656 321.924 86.5906 315.665 86.6113 309.405C86.6471 299.389 86.7081 289.374 86.7697 279.358C86.7888 275.86 86.8006 272.363 86.8112 268.865C86.8214 266.718 86.8318 264.571 86.8423 262.424C86.8433 261.453 86.8444 260.482 86.8454 259.481C86.8734 254.863 87.1187 250.55 88 246C88.1342 243.244 88.2305 240.507 88.2812 237.75C88.2997 236.974 88.3181 236.197 88.337 235.397C88.3954 232.932 88.4484 230.466 88.5 228C88.568 224.75 88.6417 221.5 88.7187 218.25C88.7323 217.512 88.7459 216.775 88.7599 216.015C88.8576 211.918 89.2472 208.026 90 204C90.3598 197.936 89.7634 192.012 89 186C85.9116 188.71 83.9949 192.097 81.875 195.562C77.8391 202.003 73.236 207.484 68 213C66.8267 214.348 65.6597 215.702 64.5 217.062C57.962 224.534 51.0177 231.145 43 237C42.2082 237.582 42.2082 237.582 41.4004 238.177C14.2428 258.108 14.2428 258.108 4.37499 257.938C1.99999 257 1.99999 257 0.999991 255C0.637349 249.47 0.64944 246.612 3.99999 242C5.98827 240.48 5.98827 240.48 8.31249 239.188C9.19808 238.682 10.0837 238.177 10.9961 237.656C13.113 236.489 15.2302 235.322 17.3476 234.156C39.7693 221.714 57.8032 204.194 71.4394 182.472C73.1302 179.794 74.865 177.148 76.6094 174.504C78.8886 171.041 81.1649 167.577 83.418 164.098C83.8694 163.402 84.3208 162.706 84.7859 161.989C86.8894 158.543 88.2319 155.961 88.3789 151.883C88.4131 151.111 88.4472 150.339 88.4824 149.543C88.5088 148.745 88.5353 147.947 88.5625 147.125C88.6231 145.544 88.6868 143.963 88.7539 142.383C88.7898 141.337 88.7898 141.337 88.8264 140.27C89 138 89 138 89.5022 135.331C90.1524 130.98 90.1747 126.71 90.2109 122.316C90.239 120.399 90.2677 118.482 90.2969 116.564C90.3378 113.577 90.3748 110.589 90.4014 107.601C90.7327 73.2673 90.7327 73.2673 100.551 63.4492C106.21 58.4644 111.491 58.172 118.312 60.9375ZM112 80C109.069 85.8214 108.374 90.9764 107.937 97.4375C107.204 107.614 107.204 107.614 105.949 112.285C105.071 115.721 104.787 118.478 104.875 122C104.893 122.949 104.911 123.898 104.93 124.875C104.953 125.576 104.976 126.278 105 127C109.685 123.058 110.798 116.795 112.687 111.188C113.311 109.452 113.311 109.452 113.947 107.682C116.736 99.4444 118.057 91.7046 117 83C116.34 82.01 115.68 81.02 115 80C114.01 80 113.02 80 112 80ZM220 149C213.105 154.172 211.655 162.719 210.406 170.883C209.934 175.11 209.781 179.312 209.75 183.562C209.729 184.279 209.709 184.995 209.687 185.732C209.65 190.892 210.615 194.41 213 199C215.762 201.762 218.207 201.579 222 202C227.956 196.044 226.167 184.62 226.186 176.723C226.185 175.988 226.185 175.253 226.185 174.497C226.187 172.241 226.206 169.986 226.225 167.73C226.228 166.284 226.23 164.837 226.23 163.391C226.235 162.092 226.239 160.793 226.243 159.454C226.01 156.139 225.543 153.924 224 151C221.983 149.656 221.983 149.656 220 149ZM85 391C79.4438 402.01 79.4438 402.01 77 414C77.33 414.66 77.66 415.32 78 416C78.99 416 79.98 416 81 416C84.946 407.553 87.3837 400.4 87 391C86.34 391 85.68 391 85 391Z" fill="white"/>
<path d="M118.523 61.1836C120.718 62.4056 122.872 63.6652 125 65C123 66 123 66 121.117 65.4414C120.377 65.1514 119.637 64.8613 118.875 64.5625C113.378 62.6447 108.743 61.8419 103.187 64.1875C100.699 66.2496 99.4685 68.133 98 71C97.6654 71.5991 97.3307 72.1981 96.9859 72.8154C93.4657 80.6154 93.6573 90.3086 93.4023 98.7305C93.3631 99.8052 93.324 100.88 93.2836 101.987C93.1609 105.387 93.0487 108.787 92.9375 112.188C92.0266 138.557 92.0266 138.557 91.5586 147.738C91.496 149.014 91.4334 150.289 91.3689 151.603C90.8525 156.358 89.6928 160.989 87 165C85.515 165.495 85.515 165.495 84 166C83.9175 166.743 83.835 167.485 83.75 168.25C82.8408 171.584 81.4282 172.59 79 175C77.9562 176.555 76.9591 178.142 76 179.75C68.2545 192.033 59.6233 202.746 49.375 213.062C48.5047 213.943 47.6344 214.823 46.7378 215.73C29.2368 233 29.2367 233 22 233C22 233.66 22 234.32 22 235C21.0242 235.459 20.0483 235.918 19.043 236.391C17.7575 237.01 16.4724 237.63 15.1875 238.25C14.2236 238.701 14.2236 238.701 13.2402 239.16C9.60995 240.928 6.88054 242.35 4.99999 246C4.64041 248.359 4.64041 248.359 4.81249 250.75C4.83956 251.549 4.86663 252.348 4.89452 253.172C4.92933 253.775 4.96413 254.378 4.99999 255C10.5229 253.197 15.5648 250.773 20.6875 248.062C21.3289 247.727 21.9703 247.391 22.6311 247.045C26.4224 245.009 29.6576 242.734 33 240C33.99 239.783 33.99 239.783 35 239.562C38.1232 238.684 39.7343 236.288 42 234C44.2148 232.041 46.4851 230.15 48.75 228.25C62.9328 216.191 74.3639 202.571 83.957 186.594C85 185 85 185 87 183C89.125 183.375 89.125 183.375 91 184C92.2126 188.325 92.1484 192.539 92.125 197C92.121 198.389 92.121 198.389 92.1169 199.806C92.0555 209.561 91.8148 219.312 91.5625 229.062C91.5429 229.864 91.5234 230.665 91.5032 231.49C91.4457 233.797 91.3821 236.103 91.3164 238.41C91.2997 239.102 91.283 239.794 91.2657 240.507C91.1829 243.207 91.045 245.783 90.4954 248.432C90.0193 250.9 89.8728 253.108 89.8687 255.616C89.8647 256.513 89.8607 257.41 89.8565 258.335C89.8571 259.306 89.8576 260.278 89.8581 261.279C89.8529 262.828 89.8529 262.829 89.8476 264.409C89.8403 266.65 89.8349 268.89 89.8313 271.131C89.8242 274.678 89.8085 278.226 89.79 281.774C89.7376 291.859 89.6895 301.945 89.6741 312.031C89.664 318.203 89.6346 324.375 89.5927 330.547C89.5804 332.897 89.5753 335.247 89.5775 337.597C89.5799 340.886 89.5577 344.174 89.53 347.462C89.5399 348.914 89.5399 348.914 89.55 350.394C89.4659 356.489 88.4361 359.953 85 365C83.6838 367.64 82.4124 370.296 81.1484 372.961C80 375 80 375 78 376C77.2015 377.716 77.2015 377.716 76.5625 379.75C75.3683 383.103 74.0942 386.086 72 389C71.34 389 70.68 389 70 389C69.8066 389.773 69.6133 390.547 69.4141 391.344C69.1537 392.385 68.8933 393.427 68.625 394.5C68.353 395.607 68.081 396.715 67.8008 397.855C67.2056 400.193 66.5297 402.51 65.8125 404.812C64.1626 411.656 63.2333 420.182 66.2383 426.676C68.5633 429.832 70.727 431.818 74 434C76.5158 434.242 76.5158 434.242 79.1875 434.125C80.0885 434.107 80.9896 434.089 81.918 434.07C82.605 434.047 83.2921 434.024 84 434C81.7765 436.525 81.2668 436.964 77.75 437.438C71.7631 436.739 68.3596 434.717 64.625 430C60.3378 422.085 61.0534 411.488 63.0664 402.895C67.359 389.586 74.2512 377.643 81.7766 365.934C82.1803 365.296 82.584 364.658 83 364C83.5116 363.347 84.0233 362.695 84.5504 362.023C86.6687 357.606 86.4314 353.546 86.4165 348.705C86.4251 347.671 86.4337 346.636 86.4425 345.57C86.4676 342.152 86.472 338.734 86.4766 335.316C86.4909 332.939 86.5066 330.561 86.5238 328.184C86.5656 321.924 86.5906 315.665 86.6113 309.405C86.6471 299.389 86.7081 289.374 86.7697 279.358C86.7888 275.86 86.8006 272.363 86.8112 268.865C86.8214 266.718 86.8318 264.571 86.8423 262.424C86.8433 261.453 86.8444 260.482 86.8454 259.481C86.8734 254.863 87.1187 250.55 88 246C88.1342 243.244 88.2305 240.507 88.2812 237.75C88.2997 236.974 88.3181 236.197 88.337 235.397C88.3954 232.932 88.4484 230.466 88.5 228C88.568 224.75 88.6417 221.5 88.7187 218.25C88.7323 217.512 88.7459 216.775 88.7599 216.015C88.8576 211.918 89.2472 208.026 90 204C90.3598 197.936 89.7634 192.012 89 186C85.9116 188.71 83.9949 192.097 81.875 195.562C77.8391 202.003 73.236 207.484 68 213C66.8267 214.348 65.6597 215.702 64.5 217.062C57.962 224.534 51.0177 231.145 43 237C42.2082 237.582 42.2082 237.582 41.4004 238.177C14.2428 258.108 14.2428 258.108 4.37499 257.938C1.99999 257 1.99999 257 0.999991 255C0.637349 249.47 0.64944 246.612 3.99999 242C5.98827 240.48 5.98827 240.48 8.31249 239.188C9.19808 238.682 10.0837 238.177 10.9961 237.656C13.113 236.489 15.2302 235.322 17.3476 234.156C39.7693 221.714 57.8032 204.194 71.4394 182.472C73.1302 179.794 74.865 177.148 76.6094 174.504C78.8886 171.041 81.1649 167.577 83.418 164.098C83.8694 163.402 84.3208 162.706 84.7859 161.989C86.8894 158.543 88.2319 155.961 88.3789 151.883C88.4131 151.111 88.4472 150.339 88.4824 149.543C88.5088 148.745 88.5353 147.947 88.5625 147.125C88.6231 145.544 88.6868 143.963 88.7539 142.383C88.7898 141.337 88.7898 141.337 88.8264 140.27C89 138 89 138 89.5022 135.331C90.1524 130.98 90.1747 126.71 90.2109 122.316C90.239 120.399 90.2677 118.482 90.2969 116.564C90.3378 113.577 90.3748 110.589 90.4014 107.601C90.7327 73.2673 90.7327 73.2673 100.551 63.4492C106.244 58.4342 111.766 58.014 118.523 61.1836Z" fill="white"/>
<path d="M265.375 191.188C266.179 191.59 266.179 191.59 267 192C267.698 196.367 268.125 200.621 268.29 205.049C268.975 223.349 271.08 241.526 275.23 259.367C276 263 276 263 276 267C276.66 267 277.32 267 278 267C278.121 267.592 278.242 268.183 278.367 268.793C279.267 273.038 280.205 277.024 282 281C282.66 281 283.32 281 284 281C284.701 282.072 285.402 283.145 286.125 284.25C289.107 288.483 291.981 290.628 297 292C302.003 292.599 306.965 292.869 312 293C312 293.33 312 293.66 312 294C304.577 295.8 297.824 295.473 291 292C283.285 286.653 279.004 280.814 276 272C275.501 270.583 275.501 270.583 274.992 269.137C268.721 249.31 266.033 228.205 265.438 207.5C265.394 206.091 265.351 204.682 265.307 203.273C265.201 199.849 265.099 196.425 265 193C263.888 193.927 262.779 194.859 261.672 195.793C261.054 196.311 260.436 196.83 259.8 197.364C258.093 198.916 256.676 200.504 255.25 202.312C251.915 206.424 247.772 209.329 243.488 212.398C240.116 215.925 239.309 219.385 238 224C237.461 225.597 236.908 227.189 236.344 228.777C236.049 229.608 235.755 230.438 235.451 231.293C227.249 254.094 219.045 276.472 203 295C202.567 295.505 202.134 296.011 201.688 296.531C186.673 313.924 167.582 325.371 147.748 336.583C124.061 348.678 124.061 348.678 106 367C104.821 371.688 104.889 376.393 104.812 381.198C104.469 398.404 101.313 418.974 88.5625 431.875C87.7169 432.576 86.8712 433.277 86 434C85.34 433.67 84.68 433.34 84 433C84.4357 432.429 84.8714 431.858 85.3203 431.27C97.6015 414.549 101.457 397.651 101.585 377.279C101.6 376.153 101.614 375.027 101.629 373.867C101.63 372.858 101.63 371.848 101.631 370.808C102.698 362.683 110.634 356.642 116.707 351.875C128.974 343.129 142.238 335.692 155.43 328.445C175.506 317.399 193.789 303.99 207 285C207.66 284.67 208.32 284.34 209 284C210.047 281.687 211.043 279.351 212 277C212.653 275.66 213.312 274.323 214 273C214.66 273 215.32 273 216 273C216.082 272.361 216.165 271.721 216.25 271.062C217.569 265.679 219.733 260.689 223.062 256.25C225.634 251.936 226.298 247.639 227.191 242.73C227.458 241.829 227.725 240.928 228 240C228.99 239.67 229.98 239.34 231 239C231.121 238.192 231.242 237.384 231.367 236.551C231.619 234.948 231.619 234.948 231.875 233.312C232.119 231.729 232.119 231.729 232.367 230.113C232.961 227.192 233.85 224.738 235 222C235.34 220.329 235.34 220.329 235.687 218.625C238.347 211.281 244.955 207.2 251 202.625C253.4 200.675 255.128 198.453 257 196C261.985 190.92 261.985 190.92 265.375 191.188Z" fill="white"/>
<path d="M277.438 139.688C278.611 139.662 278.611 139.662 279.809 139.637C282 140 282 140 283.723 141.082C286.988 145.985 285.912 152.019 285.086 157.535C283.664 168.156 283.604 178.737 283.625 189.438C283.625 190.451 283.625 191.464 283.626 192.507C283.656 207.316 284.346 221.513 287.393 236.049C288.057 239.278 288.634 242.515 289.203 245.762C289.612 248.008 290.023 250.254 290.438 252.5C290.618 253.51 290.799 254.519 290.985 255.56C293.131 266.728 293.131 266.728 299.916 275.291C303.9 276.646 307.286 275.585 311 274C315.616 270.969 319.801 267.582 324 264C324.672 263.443 325.343 262.886 326.035 262.312C345.812 244.359 354.877 216.639 357 191C357.226 186.035 357.388 181.065 357.358 176.094C357.428 171.599 357.54 169.612 360.316 165.918C363.833 163.405 365.766 163.307 370 164C372.375 165.312 372.375 165.312 374 168C378.812 197.79 373.804 227.59 356.188 252.312C354.502 254.577 352.759 256.791 351 259C350.485 259.659 349.97 260.317 349.439 260.996C341.113 271.629 332.99 281.63 321.625 289.125C321.017 289.528 320.41 289.932 319.783 290.347C318.039 291.445 318.039 291.445 315 293C314.01 292.67 313.02 292.34 312 292C316.524 288.104 316.524 288.104 319 287.562C321.503 286.859 322.671 285.488 324.41 283.617C326.35 281.644 328.452 279.915 330.562 278.125C338.369 271.16 344.701 262.703 350.715 254.176C353 251 353 251 355.25 248.812C357.141 246.854 357.62 245.659 358 243C358.66 243 359.32 243 360 243C360.271 242.158 360.541 241.316 360.82 240.449C361.827 237.505 362.942 234.635 364.107 231.751C372.139 211.475 374.509 189.62 371 168C369.83 166.607 369.83 166.607 366.562 166.812C362.95 166.604 362.95 166.604 361 169C360.72 171.756 360.556 174.428 360.473 177.191C360.402 178.876 360.331 180.56 360.26 182.244C360.159 184.894 360.063 187.545 359.971 190.196C359.878 192.757 359.77 195.318 359.66 197.879C359.638 198.657 359.616 199.436 359.594 200.238C359.373 205.209 358.41 209.421 356.694 214.094C355.903 216.265 355.415 218.417 355 220.688C353.7 226.784 350.856 231.248 347.207 236.188C345.352 238.973 344.208 241.886 343 245C342.34 245 341.68 245 341 245C340.756 245.714 340.513 246.428 340.262 247.164C335.716 257.382 325.716 266.377 316.602 272.641C314.709 274.009 314.709 274.009 314 277C308.728 279.385 303.79 279.682 298.188 278.312C295.383 276.63 294.892 275.083 294 272C293.34 272 292.68 272 292 272C288.895 263.856 287.409 255.494 285.838 246.952C285.375 244.439 284.903 241.927 284.43 239.416C284.127 237.797 283.825 236.178 283.523 234.559C283.385 233.819 283.246 233.079 283.104 232.317C281.48 223.46 280.85 215.014 280.867 206.012C280.866 204.303 280.866 204.303 280.864 202.56C280.864 200.159 280.865 197.758 280.87 195.357C280.875 191.71 280.87 188.063 280.863 184.416C280.864 182.073 280.865 179.73 280.867 177.387C280.865 176.309 280.863 175.232 280.861 174.122C280.879 168.204 281.146 162.394 281.774 156.508C282.245 151.282 282.67 146.01 281 141C279.36 141.248 279.36 141.248 277.688 141.5C274 142 274 142 271 142C273.415 139.585 274.127 139.704 277.438 139.688Z" fill="white"/>
<path d="M115.875 0.4375C120.717 1.30908 123.759 4.40851 127 8C130.134 12.8831 129.545 18.4186 129 24C127.087 31.9925 124.145 38.2367 117.187 42.875C113.019 44.3462 110.414 44.4984 106 44C102.002 41.0828 99.5089 37.0358 98.3125 32.25C97.4254 23.0241 97.1233 14.0552 103.25 6.5625C107.155 2.49545 110.436 1.50168 115.875 0.4375ZM110.937 15.4375C108.184 19.0788 107.896 22.4966 108 27C108.789 29.9466 108.789 29.9466 110 32C112.373 32.4178 112.373 32.4178 115 32C118.574 28.3029 118.354 24.1657 118.398 19.3047C117.924 16.5614 117.209 15.6485 115 14C112.854 13.8094 112.854 13.8094 110.937 15.4375Z" fill="white"/>
<path d="M125 66C130.585 69.413 132.355 73.9123 134 80C138.639 104.116 124.432 129.24 112 149C111.481 149.734 110.962 150.469 110.427 151.225C105.892 157.936 105.13 163.214 105.195 171.203C105.181 172.423 105.168 173.642 105.153 174.899C105.121 178.299 105.117 181.697 105.124 185.096C105.126 188.757 105.095 192.418 105.069 196.079C105.027 202.782 105.012 209.485 105.01 216.188C105.008 224.788 104.983 233.388 104.947 241.988C104.889 255.796 104.849 269.603 104.821 283.411C104.812 287.196 104.802 290.981 104.79 294.766C104.774 300.773 104.768 306.779 104.77 312.785C104.77 315.03 104.766 317.274 104.758 319.518C104.748 322.602 104.751 325.686 104.757 328.77C104.751 329.683 104.746 330.597 104.74 331.537C104.529 336.253 104.529 336.253 107 340C109.97 338.02 112.94 336.04 116 334C116.66 334.33 117.32 334.66 118 335C116.879 335.839 115.753 336.671 114.625 337.5C113.999 337.964 113.372 338.428 112.727 338.906C111 340 111 340 109 340C109 340.66 109 341.32 109 342C106 343 106 343 103.812 342.062C103.214 341.712 102.616 341.361 102 341C101.898 293.311 101.846 245.622 102.347 197.936C102.375 195.187 102.399 192.439 102.422 189.69C102.458 185.393 102.504 181.095 102.558 176.798C102.576 175.232 102.592 173.667 102.603 172.102C102.62 169.975 102.649 167.85 102.681 165.723C102.694 164.538 102.708 163.352 102.722 162.131C103.169 157.105 105.163 153.137 108 149C108.66 149 109.32 149 110 149C110.083 148.278 110.165 147.556 110.25 146.812C111 144 111 144 112.812 141.812C115.854 137.902 117.277 133.611 119 129C120.515 125.113 121.8 122.246 124.437 119C130.737 110.314 131.405 98.9873 131.625 88.625C131.66 87.7103 131.695 86.7957 131.732 85.8533C131.72 79.5122 130.196 75.8807 126.291 70.8882C125 69 125 69 125 66Z" fill="white"/>
<path d="M212 277C213 279 213 279 212.273 281.84C210.181 287.032 206.636 290.798 203 295C202.558 295.515 202.117 296.031 201.662 296.562C186.658 313.942 167.566 325.379 147.748 336.583C124.061 348.678 124.061 348.678 106 367C104.821 371.688 104.889 376.393 104.812 381.198C104.469 398.404 101.313 418.974 88.5625 431.875C87.7169 432.576 86.8712 433.277 86 434C85.34 433.67 84.68 433.34 84 433C84.4357 432.429 84.8714 431.858 85.3203 431.27C97.6015 414.549 101.457 397.651 101.585 377.279C101.6 376.153 101.614 375.027 101.629 373.867C101.63 372.858 101.63 371.848 101.631 370.808C102.698 362.683 110.634 356.642 116.707 351.875C128.974 343.129 142.238 335.692 155.43 328.445C175.506 317.399 193.789 303.99 207 285C207.66 284.67 208.32 284.34 209 284C210.054 281.69 211.057 279.357 212 277Z" fill="white"/>
<path d="M89 210C89.33 210 89.66 210 90 210C90.0394 238.618 90.0072 267.236 89.8161 295.854C89.7761 301.905 89.7441 307.957 89.729 314.009C89.7139 319.989 89.6796 325.969 89.6317 331.949C89.6169 334.198 89.609 336.448 89.6081 338.697C89.6057 341.81 89.5788 344.921 89.5459 348.034C89.5509 348.945 89.556 349.856 89.5611 350.794C89.4642 356.723 88.3126 360.075 85 365C83.6838 367.64 82.4124 370.296 81.1484 372.961C80 375 80 375 78 376C77.2015 377.716 77.2015 377.716 76.5625 379.75C75.3683 383.103 74.0942 386.086 72 389C71.34 389 70.68 389 70 389C69.8066 389.773 69.6133 390.547 69.4141 391.344C69.1537 392.385 68.8933 393.427 68.625 394.5C68.353 395.607 68.081 396.715 67.8008 397.855C67.2056 400.193 66.5297 402.51 65.8125 404.812C64.1626 411.656 63.2333 420.182 66.2383 426.676C68.5633 429.832 70.727 431.818 74 434C76.5158 434.242 76.5158 434.242 79.1875 434.125C80.0885 434.107 80.9896 434.089 81.918 434.07C82.605 434.047 83.2921 434.024 84 434C81.7765 436.525 81.2668 436.964 77.75 437.438C71.7631 436.739 68.3596 434.717 64.625 430C60.3378 422.085 61.0534 411.488 63.0664 402.895C67.359 389.586 74.2512 377.643 81.7766 365.934C82.1803 365.296 82.584 364.658 83 364C83.7675 363.021 83.7675 363.021 84.5504 362.023C86.6687 357.606 86.4314 353.546 86.4165 348.705C86.4251 347.671 86.4337 346.636 86.4425 345.57C86.4676 342.152 86.472 338.734 86.4766 335.316C86.4909 332.939 86.5066 330.561 86.5238 328.184C86.5656 321.924 86.5906 315.665 86.6113 309.405C86.6471 299.389 86.7081 289.374 86.7697 279.358C86.7888 275.86 86.8006 272.363 86.8112 268.865C86.8214 266.718 86.8318 264.571 86.8423 262.424C86.8438 260.967 86.8438 260.967 86.8454 259.481C86.8734 254.863 87.1187 250.55 88 246C88.1455 243.174 88.2539 240.366 88.3164 237.539C88.3372 236.748 88.358 235.958 88.3794 235.143C88.4443 232.637 88.5035 230.131 88.5625 227.625C88.6057 225.918 88.6493 224.211 88.6934 222.504C88.8 218.336 88.9014 214.168 89 210Z" fill="white"/>
<path d="M113.437 76.6875C116 77 116 77 117.75 78.25C121.274 83.184 120.579 90.2672 120 96C119.021 100.178 117.622 104.215 116.23 108.27C115.22 111.334 114.493 114.209 113.937 117.375C113 121 113 121 110.941 122.227C109.98 122.609 109.98 122.609 109 123C109 124.32 109 125.64 109 127C108.34 127 107.68 127 107 127C106.67 127.99 106.34 128.98 106 130C104.68 130 103.36 130 102 130C101.918 127.166 101.859 124.335 101.812 121.5C101.787 120.709 101.762 119.917 101.736 119.102C101.675 114.137 102.385 110.567 104.307 106.014C105.783 101.722 105.474 97.1155 105.527 92.623C105.694 86.898 106.405 77.5891 113.437 76.6875ZM112 80C109.069 85.8214 108.374 90.9764 107.937 97.4375C107.204 107.614 107.204 107.614 105.949 112.285C105.071 115.721 104.787 118.478 104.875 122C104.893 122.949 104.911 123.898 104.93 124.875C104.953 125.576 104.976 126.278 105 127C109.685 123.058 110.798 116.795 112.687 111.188C113.311 109.452 113.311 109.452 113.947 107.682C116.736 99.4444 118.057 91.7046 117 83C116.34 82.01 115.68 81.02 115 80C114.01 80 113.02 80 112 80Z" fill="white"/>
<path d="M230.187 132.438C235.853 135.741 239.87 140.606 241.943 146.835C243.837 155.036 244.527 162.909 244.687 171.312C244.722 172.542 244.756 173.771 244.791 175.037C244.872 178.025 244.942 181.012 245 184C255.26 179.37 260.957 163.948 265 154C266.144 150.696 267.161 147.394 268 144C268.99 144 269.98 144 271 144C268.334 156.36 263.769 172.462 253 180C251.453 181.832 249.976 183.699 248.527 185.609C247 187 247 187 243 187C241.923 183.77 241.828 181.297 241.754 177.898C241.721 176.685 241.688 175.472 241.654 174.223C241.594 171.681 241.536 169.139 241.482 166.598C241.175 155.629 240.513 147.181 232.937 138.688C231.009 136.789 231.009 136.789 228 136C228 135.34 228 134.68 228 134C222.39 134 216.78 134 211 134C215.763 129.237 224.32 129.916 230.187 132.438Z" fill="white"/>
<path d="M193 165C193.33 165 193.66 165 194 165C194.015 165.902 194.029 166.805 194.044 167.735C194.106 171.11 194.18 174.485 194.262 177.86C194.296 179.316 194.324 180.771 194.346 182.227C194.38 184.33 194.433 186.432 194.488 188.535C194.514 189.797 194.541 191.059 194.568 192.36C194.927 195.387 195.323 197.044 196.532 199.717C198 203 198 203 198 207C198.99 207.33 199.98 207.66 201 208C201.619 208.763 202.238 209.526 202.875 210.312C206.941 214.67 213.44 215.543 219 217C220.297 222.126 219.488 225.869 217.812 230.75C217.58 231.459 217.347 232.168 217.107 232.898C215.584 237.473 213.911 241.967 212.035 246.41C210.23 250.926 208.763 255.572 207.246 260.191C206.835 261.118 206.424 262.045 206 263C204.515 263.495 204.515 263.495 203 264C203.693 259.887 204.945 256.172 206.398 252.266C206.634 251.628 206.87 250.991 207.112 250.334C207.863 248.305 208.619 246.277 209.375 244.25C210.364 241.589 211.351 238.928 212.336 236.266C212.571 235.63 212.807 234.995 213.049 234.341C214.801 229.591 216.441 224.816 218 220C217.315 219.909 216.629 219.817 215.923 219.723C208.207 218.615 203.23 215.883 198.242 209.887C191.973 201.119 191.696 192.789 191.812 182.312C191.813 181.198 191.814 180.084 191.814 178.936C191.84 174.138 191.929 169.693 193 165Z" fill="white"/>
<path d="M87 183C89.1875 183.312 89.1875 183.312 91 184C92.2126 188.325 92.1484 192.539 92.125 197C92.1231 197.922 92.1211 198.845 92.1191 199.795C92.0305 215.2 91.4782 230.603 91 246C90.67 246 90.34 246 90 246C90.0022 245.381 90.0044 244.762 90.0067 244.124C90.0289 237.651 90.044 231.178 90.0549 224.705C90.0599 222.293 90.0667 219.881 90.0754 217.469C90.0876 213.991 90.0933 210.513 90.0976 207.035C90.1028 205.966 90.108 204.897 90.1133 203.795C90.1137 197.778 89.7864 191.967 89 186C86.0142 188.842 84.0131 192.067 81.875 195.562C77.8391 202.003 73.236 207.484 68 213C66.8267 214.348 65.6597 215.702 64.5 217.062C60.5583 221.598 56.2904 225.797 52 230C51.34 229.67 50.68 229.34 50 229C51.2913 227.562 52.583 226.125 53.875 224.688C54.6961 223.774 55.5173 222.86 56.3633 221.918C58.0811 220.017 59.8073 218.123 61.543 216.238C69.5795 207.504 76.7268 199.006 82.457 188.566C83.8167 186.305 84.9345 184.628 87 183Z" fill="white"/>
<path d="M353 251C353.586 252.861 353.586 252.861 354 255C352.629 257.227 352.629 257.227 350.562 259.625C349.82 260.503 349.077 261.381 348.312 262.285C347.549 263.181 346.786 264.077 346 265C344.683 266.684 343.371 268.372 342.062 270.062C335.986 277.584 329.713 283.816 321.625 289.125C321.018 289.528 320.41 289.931 319.785 290.346C318.039 291.445 318.039 291.445 315 293C314.01 292.67 313.02 292.34 312 292C316.524 288.104 316.524 288.104 319 287.562C321.503 286.859 322.671 285.488 324.41 283.617C326.35 281.644 328.452 279.915 330.562 278.125C339.342 270.291 346.242 260.577 353 251Z" fill="white"/>
<path d="M230.187 132.438C235.884 135.696 239.978 141.002 242.078 147.163C243.038 151.157 243.257 154.828 243.195 158.902C243.192 159.625 243.19 160.347 243.187 161.092C243.176 163.374 243.151 165.656 243.125 167.938C243.115 169.495 243.106 171.053 243.098 172.611C243.076 176.408 243.041 180.204 243 184C242.67 184 242.34 184 242 184C241.98 183.199 241.96 182.398 241.94 181.573C241.844 177.902 241.735 174.232 241.625 170.562C241.594 169.302 241.563 168.042 241.531 166.744C241.186 155.736 240.538 147.209 232.937 138.688C231.009 136.789 231.009 136.789 228 136C228 135.34 228 134.68 228 134C222.39 134 216.78 134 211 134C215.763 129.237 224.32 129.916 230.187 132.438Z" fill="white"/>
<path d="M277.438 139.688C278.611 139.662 278.611 139.662 279.809 139.637C282 140 282 140 283.723 141.082C286.973 145.962 285.921 151.971 285.102 157.465C283.621 168.466 283.545 179.478 283.375 190.562C283.337 192.653 283.298 194.744 283.258 196.834C283.163 201.889 283.079 206.945 283 212C282.67 212 282.34 212 282 212C282.003 210.732 282.003 210.732 282.007 209.439C282.027 201.478 282.042 193.518 282.052 185.557C282.057 181.464 282.064 177.372 282.075 173.279C282.086 169.33 282.092 165.382 282.095 161.433C282.097 159.926 282.1 158.418 282.106 156.911C282.113 154.801 282.114 152.692 282.114 150.583C282.116 149.381 282.118 148.18 282.12 146.942C282.134 143.939 282.134 143.939 281 141C279.36 141.248 279.36 141.248 277.688 141.5C274 142 274 142 271 142C273.415 139.585 274.127 139.704 277.438 139.688Z" fill="white"/>
<path d="M112.437 77.8125C115 78 115 78 117 80C116.67 80.99 116.34 81.98 116 83C115.67 82.34 115.34 81.68 115 81C114.01 81 113.02 81 112 81C109.659 88.9048 108.656 96.3688 108.246 104.594C108.049 107.321 107.734 109.637 107 112.25C105.698 117.134 105.351 121.97 105 127C104.67 127 104.34 127 104 127C103.689 117.656 104.188 108.384 104.812 99.0625C104.883 97.8897 104.953 96.7169 105.025 95.5085C106.26 78.2877 106.26 78.2877 112.437 77.8125Z" fill="white"/>
<path d="M103 257C103.33 257 103.66 257 104 257C104.012 258.515 104.012 258.515 104.024 260.062C104.102 269.568 104.19 279.074 104.288 288.58C104.338 293.467 104.384 298.355 104.422 303.242C104.459 307.956 104.505 312.67 104.558 317.384C104.577 319.185 104.592 320.986 104.603 322.788C104.62 325.304 104.649 327.821 104.681 330.337C104.683 331.088 104.685 331.838 104.688 332.611C104.626 336.76 104.626 336.76 107 340C109.97 338.02 112.94 336.04 116 334C116.66 334.33 117.32 334.66 118 335C116.879 335.839 115.753 336.671 114.625 337.5C113.685 338.196 113.685 338.196 112.727 338.906C111 340 111 340 109 340C109 340.66 109 341.32 109 342C107.515 342.495 107.515 342.495 106 343C105.01 342.34 104.02 341.68 103 341C102.714 338.278 102.622 335.785 102.659 333.062C102.659 332.242 102.659 331.423 102.658 330.578C102.66 327.862 102.684 325.146 102.707 322.43C102.713 320.549 102.717 318.669 102.72 316.788C102.731 311.833 102.761 306.878 102.794 301.923C102.825 296.87 102.838 291.816 102.854 286.762C102.886 276.841 102.937 266.921 103 257Z" fill="white"/>
<path d="M211 218C213.64 218 216.28 218 219 218C220.471 222.667 219.328 226.218 217.812 230.688C217.463 231.758 217.463 231.758 217.107 232.849C215.588 237.443 213.918 241.952 212.035 246.41C210.23 250.926 208.763 255.572 207.246 260.191C206.835 261.118 206.424 262.045 206 263C204.515 263.495 204.515 263.495 203 264C203.693 259.887 204.945 256.172 206.398 252.266C206.634 251.628 206.87 250.991 207.112 250.334C207.863 248.305 208.619 246.277 209.375 244.25C210.364 241.589 211.351 238.928 212.336 236.266C212.571 235.63 212.807 234.995 213.049 234.341C214.801 229.591 216.441 224.816 218 220C215.69 219.67 213.38 219.34 211 219C211 218.67 211 218.34 211 218Z" fill="white"/>
<path d="M89.1875 183.312C89.7856 183.539 90.3837 183.766 91 184C92.2126 188.325 92.1484 192.539 92.125 197C92.1231 197.922 92.1211 198.845 92.1191 199.795C92.0305 215.2 91.4782 230.603 91 246C90.67 246 90.34 246 90 246C90.0033 245.072 90.0033 245.072 90.0067 244.124C90.0289 237.651 90.044 231.178 90.0549 224.705C90.0599 222.293 90.0667 219.881 90.0754 217.469C90.0876 213.991 90.0933 210.513 90.0976 207.035C90.1028 205.966 90.108 204.897 90.1133 203.795C90.1137 197.778 89.7864 191.967 89 186C87.2916 187.634 86.0655 188.869 85 191C84.01 191 83.02 191 82 191C84.9154 182.702 84.9154 182.702 89.1875 183.312Z" fill="white"/>
<path d="M123.203 349.379C123.796 349.584 124.389 349.789 125 350C123.697 350.961 123.697 350.961 122.367 351.941C111.618 359.184 111.618 359.184 105.379 369.838C105.018 372.849 104.798 375.806 104.684 378.836C104.642 379.899 104.6 380.963 104.557 382.059C104.517 383.153 104.478 384.247 104.437 385.375C104.394 386.493 104.351 387.61 104.307 388.762C104.201 391.508 104.099 394.254 104 397C103.67 397 103.34 397 103 397C102.912 392.479 102.859 387.959 102.812 383.438C102.787 382.161 102.762 380.884 102.736 379.568C102.674 371.627 102.732 366.107 107.797 359.742C119.333 348.713 119.333 348.713 123.203 349.379Z" fill="white"/>
<path d="M104 105C104.33 105 104.66 105 105 105C104.67 112.26 104.34 119.52 104 127C106.88 124.12 107.57 122.623 109 119C109.66 118.67 110.32 118.34 111 118C111.903 116.117 111.903 116.117 112.625 113.938C112.885 113.204 113.146 112.471 113.414 111.715C113.607 111.149 113.801 110.583 114 110C115.282 112.564 114.877 113.72 114.312 116.5C114.164 117.294 114.016 118.088 113.863 118.906C113 121 113 121 110.918 122.281C110.285 122.518 109.652 122.756 109 123C109 124.32 109 125.64 109 127C108.34 127 107.68 127 107 127C106.67 127.99 106.34 128.98 106 130C104.68 130 103.36 130 102 130C101.946 127.146 101.906 124.292 101.875 121.438C101.858 120.638 101.841 119.838 101.824 119.014C101.783 113.935 102.359 109.812 104 105Z" fill="white"/>
<path d="M119 0.999997C121.18 3.02343 121.18 3.02344 123 5C122.154 4.90719 121.309 4.81437 120.437 4.71875C113.66 4.22682 113.66 4.22682 107.426 6.5C102.878 10.8038 100.7 14.8261 100 21C99.893 21.7528 99.786 22.5056 99.6758 23.2812C99.4179 25.1834 99.2045 27.0914 99 29C98.67 29 98.34 29 98 29C97.7323 20.5666 97.7082 13.3399 103.25 6.5625C107.766 1.85946 112.457 0.146558 119 0.999997Z" fill="white"/>
<path d="M212 277C213 279 213 279 212.273 281.84C209.115 289.678 202.294 295.903 196.687 302.125C196.172 302.706 195.657 303.287 195.125 303.885C193.812 305.316 192.412 306.666 191 308C190.01 308 189.02 308 188 308C201.321 291.503 201.321 291.503 207.121 285.98C208.932 284.072 209.816 282.677 210.75 280.25C211.162 279.178 211.575 278.105 212 277Z" fill="white"/>
<path d="M289 259C289.99 259.33 290.98 259.66 292 260C293.171 262.693 293.975 265.433 294.84 268.238C296.386 271.92 298.421 274.21 302 276C308.085 276.233 308.085 276.233 314 275C314 275.66 314 276.32 314 277C308.533 279.133 303.929 279.716 298.188 278.312C295.383 276.63 294.892 275.083 294 272C293.34 272 292.68 272 292 272C291.492 270.586 290.994 269.169 290.5 267.75C290.082 266.567 290.082 266.567 289.656 265.359C289 263 289 263 289 259Z" fill="white"/>
<path d="M285 228C285.33 228 285.66 228 286 228C286.841 232.394 287.671 236.791 288.5 241.188C288.738 242.433 288.977 243.679 289.223 244.963C289.448 246.165 289.674 247.367 289.906 248.605C290.116 249.71 290.325 250.815 290.541 251.954C290.955 254.698 291.09 257.232 291 260C288 258 288 258 287.051 254.797C286.788 253.451 286.543 252.102 286.312 250.75C286.185 250.044 286.058 249.337 285.926 248.609C284.779 241.714 284.705 234.985 285 228Z" fill="white"/>
<path d="M265.266 191.297C266.124 191.645 266.124 191.645 267 192C267.98 197.688 268.119 203.173 268.062 208.938C268.058 209.812 268.053 210.687 268.049 211.588C268.037 213.725 268.019 215.863 268 218C267.67 218 267.34 218 267 218C266.663 214.959 266.33 211.917 266 208.875C265.905 208.019 265.809 207.163 265.711 206.281C265.621 205.443 265.53 204.605 265.438 203.742C265.354 202.978 265.27 202.213 265.184 201.425C264.972 198.624 265 195.809 265 193C261.7 195.64 258.4 198.28 255 201C255 198 255 198 256.609 196.141C257.316 195.517 258.022 194.893 258.75 194.25C259.446 193.616 260.142 192.982 260.859 192.328C263 191 263 191 265.266 191.297Z" fill="white"/>
<path d="M209 134C209.66 134.33 210.32 134.66 211 135C210.457 135.473 209.915 135.946 209.355 136.434C204.201 141.198 201.527 145.13 200 152C199.34 152 198.68 152 198 152C197.879 152.855 197.758 153.709 197.633 154.59C197.465 155.695 197.298 156.799 197.125 157.938C196.963 159.04 196.8 160.142 196.633 161.277C196.32 162.625 196.32 162.625 196 164C195.34 164.33 194.68 164.66 194 165C194.826 152.19 199.765 142.815 209 134Z" fill="white"/>
<path d="M196 201C198 203 198 203 198 207C198.99 207.33 199.98 207.66 201 208C201.619 208.763 202.238 209.526 202.875 210.312C206.941 214.67 213.44 215.543 219 217C219 217.33 219 217.66 219 218C213.166 218.579 208.438 218.916 203.562 215.312C196.136 208.801 196.136 208.801 195.75 203.688C195.832 202.801 195.915 201.914 196 201Z" fill="white"/>
<path d="M118.523 61.1836C120.718 62.4056 122.872 63.6652 125 65C123 66 123 66 121.117 65.4414C120.007 65.0063 120.007 65.0063 118.875 64.5625C113.423 62.6604 108.683 61.7196 103.25 64.3125C102.507 64.8694 101.765 65.4262 101 66C100.237 66.5569 99.4737 67.1137 98.6875 67.6875C98.1306 68.1206 97.5737 68.5537 97 69C98.5601 64.7877 101.485 62.6545 105 60C109.824 58.392 114.001 59.0625 118.523 61.1836Z" fill="white"/>
<path d="M353 251C353.73 252.691 353.73 252.691 354 255C352.488 257.402 352.488 257.402 350.312 259.938C349.255 261.189 349.255 261.189 348.176 262.465C347.458 263.301 346.74 264.138 346 265C345.297 265.902 344.595 266.805 343.871 267.734C342.009 269.989 340.688 270.944 338 272C339.274 269.29 340.661 266.988 342.531 264.652C343.012 264.047 343.493 263.442 343.988 262.818C344.487 262.198 344.986 261.577 345.5 260.938C346.491 259.697 347.48 258.457 348.469 257.215C348.906 256.669 349.344 256.124 349.795 255.562C350.93 254.091 351.969 252.546 353 251Z" fill="white"/>
<path d="M269 143C269.66 143.33 270.32 143.66 271 144C269.039 153.09 266.01 162.127 261 170C261 167.109 261.421 165.215 262.242 162.473C262.504 161.598 262.766 160.723 263.035 159.822C263.451 158.456 263.451 158.456 263.875 157.062C264.144 156.156 264.414 155.249 264.691 154.314C265.885 150.358 267.059 146.662 269 143Z" fill="white"/>
<path d="M82 368C82.33 368.66 82.66 369.32 83 370C80.5902 374.705 80.5902 374.705 78 376C77.2015 377.716 77.2015 377.716 76.5625 379.75C75.3785 383.109 73.9629 386.009 72 389C70.7061 386.412 71.1872 385.65 72.0625 382.938C73.8859 377.729 76.8492 370.575 82 368Z" fill="white"/>
<path d="M139 321C139.66 321.33 140.32 321.66 141 322C140.361 322.268 139.721 322.536 139.062 322.812C136.669 323.887 136.669 323.887 136 327C133.891 328.316 133.891 328.316 131.25 329.562C130.389 329.976 129.528 330.39 128.641 330.816C127.769 331.207 126.898 331.598 126 332C125.129 332.401 124.257 332.802 123.359 333.215C121 334 121 334 118 333C121.451 330.966 124.912 328.95 128.375 326.938C129.36 326.357 130.345 325.776 131.359 325.178C132.3 324.633 133.241 324.088 134.211 323.527C135.08 323.019 135.95 322.511 136.845 321.988C137.556 321.662 138.267 321.336 139 321Z" fill="white"/>
<path d="M230 241C231.224 244.673 230.657 245.432 229.129 248.887C228.72 249.825 228.31 250.762 227.889 251.729C227.232 253.193 227.232 253.193 226.562 254.688C225.912 256.17 225.912 256.17 225.248 257.682C224.174 260.125 223.091 262.564 222 265C221.67 265 221.34 265 221 265C220.483 259.572 222.003 257.407 225 253C225.635 250.983 225.635 250.983 226.062 248.875C226.917 245.344 227.597 243.621 230 241Z" fill="white"/>
<path d="M125 66C129.144 68.9119 131.182 71.2648 133 76C133.348 79.4692 133.284 82.893 133.187 86.375C133.174 87.3018 133.16 88.2287 133.146 89.1836C133.111 91.4563 133.062 93.7279 133 96C132.67 96 132.34 96 132 96C131.997 94.805 131.995 93.6101 131.992 92.3789C131.909 80.6455 131.909 80.6455 126.277 70.6289C125 69 125 69 125 66Z" fill="white"/>
<path d="M103 327C103.33 327 103.66 327 104 327C104.049 327.771 104.098 328.542 104.148 329.336C104.223 330.339 104.298 331.342 104.375 332.375C104.445 333.373 104.514 334.37 104.586 335.398C104.764 338.155 104.764 338.155 107 340C109.97 338.02 112.94 336.04 116 334C116.66 334.33 117.32 334.66 118 335C116.879 335.839 115.753 336.671 114.625 337.5C113.999 337.964 113.372 338.428 112.727 338.906C111 340 111 340 109 340C109 340.66 109 341.32 109 342C108.01 342.33 107.02 342.66 106 343C105.01 342.34 104.02 341.68 103 341C102.707 337.742 102.707 337.742 102.812 333.875C102.84 332.594 102.867 331.312 102.895 329.992C102.929 329.005 102.964 328.017 103 327Z" fill="white"/>
<path d="M210 247C211 249 211 249 210.109 252.223C209.664 253.505 209.211 254.785 208.75 256.062C208.532 256.713 208.314 257.363 208.09 258.033C207.422 259.91 207.422 259.91 206 263C205.01 263.33 204.02 263.66 203 264C203.66 260.269 204.66 256.816 205.937 253.25C206.277 252.286 206.616 251.322 206.965 250.328C208 248 208 248 210 247Z" fill="white"/>
<path d="M243 157C243.33 157 243.66 157 244 157C244.33 165.91 244.66 174.82 245 184C245.66 184.33 246.32 184.66 247 185C247 185.66 247 186.32 247 187C245.68 187 244.36 187 243 187C243 177.1 243 167.2 243 157Z" fill="white"/>
<path d="M363 235C363.66 235 364.32 235 365 235C363.624 239.766 361.532 243.725 358.875 247.875C358.502 248.468 358.13 249.061 357.746 249.672C356.836 251.118 355.919 252.56 355 254C354.67 253.01 354.34 252.02 354 251C354.965 249.641 355.969 248.309 357 247C357.705 244.853 357.705 244.853 358 243C358.66 243 359.32 243 360 243C360.309 242.051 360.619 241.103 360.938 240.125C362 237 362 237 363 235Z" fill="white"/>
<path d="M256 199C256 202 256 202 253.594 204.48C252.57 205.391 251.538 206.293 250.5 207.188C249.975 207.651 249.451 208.114 248.91 208.592C247.613 209.735 246.307 210.869 245 212C244.34 211.67 243.68 211.34 243 211C244.221 209.555 245.452 208.119 246.687 206.688C247.372 205.887 248.056 205.086 248.762 204.262C251.017 201.983 253.192 200.52 256 199Z" fill="white"/>
<path d="M102 397C102.33 397 102.66 397 103 397C102.45 403.048 101.096 408.306 99 414C98.67 414 98.34 414 98 414C97.5126 407.299 98.9229 402.934 102 397Z" fill="white"/>
<path d="M153 331C153 331.99 153 332.98 153 334C148.358 336.533 144.348 338.465 139 339C141.276 336.504 143.607 334.934 146.562 333.312C147.348 332.876 148.133 332.439 148.941 331.988C151 331 151 331 153 331Z" fill="white"/>
<path d="M50 227C50.66 227.33 51.32 227.66 52 228C49.0204 232.011 46.0629 235.122 42 238C40.68 237.67 39.36 237.34 38 237C41.96 233.7 45.92 230.4 50 227Z" fill="white"/>
<path d="M88 156C88.66 156 89.32 156 90 156C89.5774 157.484 89.1364 158.962 88.6875 160.438C88.4439 161.261 88.2002 162.085 87.9492 162.934C87.4793 163.956 87.4793 163.956 87 165C86.01 165.33 85.02 165.66 84 166C83.67 167.65 83.34 169.3 83 171C82.67 170.34 82.34 169.68 82 169C83.7229 164.521 85.8117 160.272 88 156Z" fill="white"/>
<path d="M97 410C97.33 410 97.66 410 98 410C98.5497 415.635 96.9505 418.39 94 423C93.34 423 92.68 423 92 423C92.4545 421.582 92.9137 420.166 93.375 418.75C93.7578 417.567 93.7578 417.567 94.1484 416.359C94.9517 414.134 95.8971 412.091 97 410Z" fill="white"/>
<path d="M198 298C198 301 198 301 196.25 303.043C195.507 303.751 194.765 304.458 194 305.188C193.257 305.903 192.515 306.618 191.75 307.355C190.884 308.17 190.884 308.17 190 309C189.34 308.67 188.68 308.34 188 308C189.1 306.705 190.205 305.414 191.312 304.125C191.927 303.406 192.542 302.686 193.176 301.945C195 300 195 300 198 298Z" fill="white"/>
<path d="M123 5C128.959 10.8059 128.959 10.8059 129.098 14.8203C129.086 15.9109 129.074 17.0014 129.062 18.125C129.053 19.2207 129.044 20.3164 129.035 21.4453C129.024 22.2884 129.012 23.1314 129 24C128.67 24 128.34 24 128 24C127.961 23.039 127.961 23.039 127.922 22.0586C127.518 15.8946 126.34 12.1709 123 7C123 6.34 123 5.68 123 5Z" fill="white"/>
<path d="M324 285C324.66 285.33 325.32 285.66 326 286C324.238 287.2 322.465 288.385 320.688 289.562C319.208 290.554 319.208 290.554 317.699 291.566C316.808 292.039 315.918 292.513 315 293C314.01 292.67 313.02 292.34 312 292C315.813 288.649 319.265 286.697 324 285Z" fill="white"/>
<path d="M126 116C127.282 119.031 126.986 120.036 125.75 123.188C124 126 124 126 121 127C121.531 122.485 123.366 119.653 126 116Z" fill="white"/>
<path d="M244 208C244.66 208.33 245.32 208.66 246 209C245.046 210.149 244.086 211.294 243.125 212.438C242.591 213.076 242.058 213.714 241.508 214.371C240 216 240 216 238 217C236.866 219.017 236.866 219.017 236 221C235.632 217.717 235.677 216.413 237.75 213.762C238.864 212.735 238.864 212.735 240 211.688C240.742 210.99 241.485 210.293 242.25 209.574C242.827 209.055 243.405 208.535 244 208Z" fill="white"/>
<path d="M228 134C234.75 135.75 234.75 135.75 237 138C236.625 140.125 236.625 140.125 236 142C235.237 141.196 234.474 140.391 233.687 139.562C231.206 136.832 231.206 136.832 228 136C228 135.34 228 134.68 228 134Z" fill="white"/>
<path d="M220 261C220.33 261 220.66 261 221 261C221.125 267.75 221.125 267.75 220 270C217.937 270.625 217.937 270.625 216 271C216.475 269.52 216.955 268.041 217.437 266.562C217.704 265.739 217.971 264.915 218.246 264.066C219 262 219 262 220 261Z" fill="white"/>
<path d="M269 143C269.66 143.33 270.32 143.66 271 144C270.745 145.316 270.471 146.628 270.188 147.938C270.037 148.668 269.886 149.399 269.73 150.152C269.489 150.762 269.248 151.372 269 152C268.01 152.33 267.02 152.66 266 153C266.308 151.52 266.622 150.041 266.938 148.562C267.112 147.739 267.286 146.915 267.465 146.066C268 144 268 144 269 143Z" fill="white"/>
<path d="M22 251C20.5699 251.866 19.1306 252.718 17.6875 253.563C16.4867 254.276 16.4867 254.276 15.2617 255.004C13 256 13 256 9.99999 255C12.7211 251.479 17.8032 248.902 22 251Z" fill="white"/>
<path d="M367 225C367.33 225 367.66 225 368 225C368.179 228.947 368.094 231.598 366 235C365.34 235 364.68 235 364 235C364.507 231.281 365.116 228.265 367 225Z" fill="white"/>
<path d="M24 246C24.66 246.33 25.32 246.66 26 247C24 250 24 250 21.8359 250.73C20.6178 250.957 20.6178 250.957 19.375 251.188C18.1491 251.425 18.1491 251.425 16.8984 251.668C15.9587 251.832 15.9587 251.832 15 252C16.267 249.466 17.4312 249.068 19.9375 247.812C20.6478 247.448 21.358 247.083 22.0898 246.707C22.7202 246.474 23.3505 246.24 24 246Z" fill="white"/>
<path d="M163 324C165.25 324.25 165.25 324.25 167 325C165.02 326.32 163.04 327.64 161 329C160.34 328.67 159.68 328.34 159 328C160.75 325.938 160.75 325.938 163 324Z" fill="white"/>
<path d="M8.99999 240C9.65999 240 10.32 240 11 240C9.50902 243.795 7.24298 245.61 3.99999 248C5.36943 245.05 6.8783 242.475 8.99999 240Z" fill="white"/>
<path d="M231 236C231.66 236 232.32 236 233 236C232.67 237.65 232.34 239.3 232 241C231.34 241 230.68 241 230 241C229.67 241.99 229.34 242.98 229 244C228.67 242.68 228.34 241.36 228 240C228.99 239.67 229.98 239.34 231 239C231 238.01 231 237.02 231 236Z" fill="white"/>
</svg>
